# xmcd
#
# Track frame offsets: 
#        150
#        23095
#        43344
#        62806
#        86044
#        117836
#        139890
#        165888
#        198767
#        221824
#        250720
#        272757
#
# Disc length: 3931 seconds
#
# Revision: 0
# Processed by: cddbd v1.5.2PL0 Copyright (c) Steve Scherf et al.
# Submitted via: ExactAudioCopy v1.0b3
#
DISCID=a80f590c
DTITLE=Duy Khanh - Con Quoc Viet Nam
DYEAR=1900
DGENRE=
TTITLE0=Con quoc Viet Nam
TTITLE1=Hen ve
TTITLE2=Vung truoc mat
TTITLE3=Dem nho ve Sai Gon
TTITLE4=Tu tieng hat tiep noi
TTITLE5=Ton Nu con buon
TTITLE6=Trom nhin nhau
TTITLE7=Duy Khanh, Huong Lan - Chuyen mot chiec cau da gay
TTITLE8=Hoa binh oi Viet Nam oi
TTITLE9=Dua em vao ha
TTITLE10=Cach biet
TTITLE11=Bai huong ca vo tan
EXTD=
EXTT0=
EXTT1=
EXTT2=
EXTT3=
EXTT4=
EXTT5=
EXTT6=
EXTT7=
EXTT8=
EXTT9=
EXTT10=
EXTT11=
PLAYORDER=
